<mxfile host="app.diagrams.net" modified="2022-11-17T15:54:30.957Z" agent="5.0 (Macintosh; Intel Mac OS X 10_15_7) AppleWebKit/537.36 (KHTML, like Gecko) Chrome/107.0.0.0 Safari/537.36" etag="T-E8rmmM_dJqD5G57c1N" version="20.5.3" type="github">
  <diagram id="C5RBs43oDa-KdzZeNtuy" name="Page-1">
    <mxGraphModel dx="946" dy="613" grid="1" gridSize="10" guides="1" tooltips="1" connect="1" arrows="1" fold="1" page="1" pageScale="1" pageWidth="3300" pageHeight="4681" math="0" shadow="0">
      <root>
        <mxCell id="WIyWlLk6GJQsqaUBKTNV-0" />
        <mxCell id="WIyWlLk6GJQsqaUBKTNV-1" parent="WIyWlLk6GJQsqaUBKTNV-0" />
        <mxCell id="fS0RfPB_zb-3uNbmco2U-18" style="rounded=0;orthogonalLoop=1;jettySize=auto;html=1;entryX=0.5;entryY=0;entryDx=0;entryDy=0;entryPerimeter=0;" parent="WIyWlLk6GJQsqaUBKTNV-1" source="fS0RfPB_zb-3uNbmco2U-16" target="fS0RfPB_zb-3uNbmco2U-17" edge="1">
          <mxGeometry relative="1" as="geometry" />
        </mxCell>
        <mxCell id="fS0RfPB_zb-3uNbmco2U-16" value="create event" style="strokeWidth=2;html=1;shape=mxgraph.flowchart.start_1;whiteSpace=wrap;fontSize=16;" parent="WIyWlLk6GJQsqaUBKTNV-1" vertex="1">
          <mxGeometry x="670" y="140" width="100" height="60" as="geometry" />
        </mxCell>
        <mxCell id="fS0RfPB_zb-3uNbmco2U-20" style="edgeStyle=orthogonalEdgeStyle;rounded=0;orthogonalLoop=1;jettySize=auto;html=1;entryX=0;entryY=0.5;entryDx=0;entryDy=0;entryPerimeter=0;" parent="WIyWlLk6GJQsqaUBKTNV-1" source="fS0RfPB_zb-3uNbmco2U-17" target="Z6ygz40lFEd_rRB81E8B-7" edge="1">
          <mxGeometry relative="1" as="geometry">
            <mxPoint x="920" y="290" as="targetPoint" />
          </mxGeometry>
        </mxCell>
        <mxCell id="fS0RfPB_zb-3uNbmco2U-85" style="rounded=0;orthogonalLoop=1;jettySize=auto;html=1;entryX=0.5;entryY=0;entryDx=0;entryDy=0;entryPerimeter=0;fontSize=16;targetPerimeterSpacing=0;" parent="WIyWlLk6GJQsqaUBKTNV-1" source="fS0RfPB_zb-3uNbmco2U-17" target="fS0RfPB_zb-3uNbmco2U-24" edge="1">
          <mxGeometry relative="1" as="geometry" />
        </mxCell>
        <mxCell id="fS0RfPB_zb-3uNbmco2U-17" value="data validate" style="strokeWidth=2;html=1;shape=mxgraph.flowchart.decision;whiteSpace=wrap;fontSize=16;" parent="WIyWlLk6GJQsqaUBKTNV-1" vertex="1">
          <mxGeometry x="645" y="240" width="150" height="100" as="geometry" />
        </mxCell>
        <mxCell id="fS0RfPB_zb-3uNbmco2U-21" value="N" style="text;html=1;align=center;verticalAlign=middle;resizable=0;points=[];autosize=1;strokeColor=none;fillColor=none;fontSize=16;" parent="WIyWlLk6GJQsqaUBKTNV-1" vertex="1">
          <mxGeometry x="820" y="260" width="40" height="30" as="geometry" />
        </mxCell>
        <mxCell id="fS0RfPB_zb-3uNbmco2U-89" style="edgeStyle=none;rounded=0;orthogonalLoop=1;jettySize=auto;html=1;entryX=0.5;entryY=0;entryDx=0;entryDy=0;fontSize=16;targetPerimeterSpacing=0;" parent="WIyWlLk6GJQsqaUBKTNV-1" source="fS0RfPB_zb-3uNbmco2U-24" target="fS0RfPB_zb-3uNbmco2U-88" edge="1">
          <mxGeometry relative="1" as="geometry" />
        </mxCell>
        <mxCell id="hDSJZl-OeeHs49ADf9ct-0" style="edgeStyle=orthogonalEdgeStyle;rounded=0;orthogonalLoop=1;jettySize=auto;html=1;exitX=0.5;exitY=0;exitDx=0;exitDy=0;exitPerimeter=0;entryX=0.5;entryY=0;entryDx=0;entryDy=0;entryPerimeter=0;" parent="WIyWlLk6GJQsqaUBKTNV-1" source="fS0RfPB_zb-3uNbmco2U-24" target="fS0RfPB_zb-3uNbmco2U-35" edge="1">
          <mxGeometry relative="1" as="geometry" />
        </mxCell>
        <mxCell id="fS0RfPB_zb-3uNbmco2U-24" value="" style="points=[[0.25,0,0],[0.5,0,0],[0.75,0,0],[1,0.25,0],[1,0.5,0],[1,0.75,0],[0.75,1,0],[0.5,1,0],[0.25,1,0],[0,0.75,0],[0,0.5,0],[0,0.25,0]];shape=mxgraph.bpmn.task;whiteSpace=wrap;rectStyle=rounded;size=10;html=1;taskMarker=abstract;isLoopSub=1;fontSize=16;movable=1;resizable=1;rotatable=1;deletable=1;editable=1;connectable=1;" parent="WIyWlLk6GJQsqaUBKTNV-1" vertex="1">
          <mxGeometry x="495" y="370" width="450" height="940" as="geometry" />
        </mxCell>
        <mxCell id="fS0RfPB_zb-3uNbmco2U-58" style="edgeStyle=orthogonalEdgeStyle;rounded=0;orthogonalLoop=1;jettySize=auto;html=1;entryX=0.5;entryY=0;entryDx=0;entryDy=0;fontSize=16;" parent="WIyWlLk6GJQsqaUBKTNV-1" source="fS0RfPB_zb-3uNbmco2U-25" target="fS0RfPB_zb-3uNbmco2U-57" edge="1">
          <mxGeometry relative="1" as="geometry" />
        </mxCell>
        <mxCell id="fS0RfPB_zb-3uNbmco2U-25" value="vo2do" style="rounded=1;whiteSpace=wrap;html=1;absoluteArcSize=1;arcSize=14;strokeWidth=2;fontSize=16;" parent="WIyWlLk6GJQsqaUBKTNV-1" vertex="1">
          <mxGeometry x="670" y="600" width="100" height="50" as="geometry" />
        </mxCell>
        <mxCell id="fS0RfPB_zb-3uNbmco2U-37" style="edgeStyle=orthogonalEdgeStyle;rounded=0;orthogonalLoop=1;jettySize=auto;html=1;fontSize=16;" parent="WIyWlLk6GJQsqaUBKTNV-1" source="fS0RfPB_zb-3uNbmco2U-32" target="fS0RfPB_zb-3uNbmco2U-25" edge="1">
          <mxGeometry relative="1" as="geometry" />
        </mxCell>
        <mxCell id="fS0RfPB_zb-3uNbmco2U-32" value="RuleVO" style="shape=parallelogram;html=1;strokeWidth=2;perimeter=parallelogramPerimeter;whiteSpace=wrap;rounded=1;arcSize=12;size=0.23;fontSize=16;" parent="WIyWlLk6GJQsqaUBKTNV-1" vertex="1">
          <mxGeometry x="670" y="500" width="100" height="60" as="geometry" />
        </mxCell>
        <mxCell id="fS0RfPB_zb-3uNbmco2U-36" style="edgeStyle=orthogonalEdgeStyle;rounded=0;orthogonalLoop=1;jettySize=auto;html=1;exitX=0.5;exitY=1;exitDx=0;exitDy=0;exitPerimeter=0;entryX=0.5;entryY=0;entryDx=0;entryDy=0;fontSize=16;" parent="WIyWlLk6GJQsqaUBKTNV-1" source="fS0RfPB_zb-3uNbmco2U-35" target="fS0RfPB_zb-3uNbmco2U-32" edge="1">
          <mxGeometry relative="1" as="geometry" />
        </mxCell>
        <mxCell id="fS0RfPB_zb-3uNbmco2U-35" value="begin trx" style="strokeWidth=2;html=1;shape=mxgraph.flowchart.start_2;whiteSpace=wrap;fontSize=16;" parent="WIyWlLk6GJQsqaUBKTNV-1" vertex="1">
          <mxGeometry x="687.5" y="400" width="65" height="65" as="geometry" />
        </mxCell>
        <mxCell id="fS0RfPB_zb-3uNbmco2U-62" value="" style="edgeStyle=orthogonalEdgeStyle;rounded=0;orthogonalLoop=1;jettySize=auto;html=1;fontSize=16;" parent="WIyWlLk6GJQsqaUBKTNV-1" source="fS0RfPB_zb-3uNbmco2U-57" target="fS0RfPB_zb-3uNbmco2U-61" edge="1">
          <mxGeometry relative="1" as="geometry" />
        </mxCell>
        <mxCell id="fS0RfPB_zb-3uNbmco2U-57" value="RuleDO" style="shape=parallelogram;html=1;strokeWidth=2;perimeter=parallelogramPerimeter;whiteSpace=wrap;rounded=1;arcSize=12;size=0.23;fontSize=16;" parent="WIyWlLk6GJQsqaUBKTNV-1" vertex="1">
          <mxGeometry x="670" y="700" width="100" height="60" as="geometry" />
        </mxCell>
        <mxCell id="fS0RfPB_zb-3uNbmco2U-65" value="" style="edgeStyle=orthogonalEdgeStyle;rounded=0;orthogonalLoop=1;jettySize=auto;html=1;fontSize=16;" parent="WIyWlLk6GJQsqaUBKTNV-1" source="fS0RfPB_zb-3uNbmco2U-61" target="fS0RfPB_zb-3uNbmco2U-64" edge="1">
          <mxGeometry relative="1" as="geometry" />
        </mxCell>
        <mxCell id="fS0RfPB_zb-3uNbmco2U-69" style="edgeStyle=orthogonalEdgeStyle;rounded=0;orthogonalLoop=1;jettySize=auto;html=1;fontSize=16;" parent="WIyWlLk6GJQsqaUBKTNV-1" source="fS0RfPB_zb-3uNbmco2U-61" target="fS0RfPB_zb-3uNbmco2U-66" edge="1">
          <mxGeometry relative="1" as="geometry" />
        </mxCell>
        <mxCell id="fS0RfPB_zb-3uNbmco2U-61" value="fetch and persist user group bitmap" style="whiteSpace=wrap;html=1;fontSize=16;strokeWidth=2;rounded=1;arcSize=12;" parent="WIyWlLk6GJQsqaUBKTNV-1" vertex="1">
          <mxGeometry x="660" y="810" width="120" height="60" as="geometry" />
        </mxCell>
        <mxCell id="fS0RfPB_zb-3uNbmco2U-71" style="edgeStyle=orthogonalEdgeStyle;rounded=0;orthogonalLoop=1;jettySize=auto;html=1;entryX=0.5;entryY=0;entryDx=0;entryDy=0;fontSize=16;" parent="WIyWlLk6GJQsqaUBKTNV-1" source="fS0RfPB_zb-3uNbmco2U-64" target="fS0RfPB_zb-3uNbmco2U-70" edge="1">
          <mxGeometry relative="1" as="geometry" />
        </mxCell>
        <mxCell id="fS0RfPB_zb-3uNbmco2U-64" value="generate groovy text" style="whiteSpace=wrap;html=1;fontSize=16;strokeWidth=2;rounded=1;arcSize=12;" parent="WIyWlLk6GJQsqaUBKTNV-1" vertex="1">
          <mxGeometry x="635" y="910" width="170" height="60" as="geometry" />
        </mxCell>
        <mxCell id="fS0RfPB_zb-3uNbmco2U-66" value="redis" style="strokeWidth=2;html=1;shape=mxgraph.flowchart.database;whiteSpace=wrap;fontSize=16;" parent="WIyWlLk6GJQsqaUBKTNV-1" vertex="1">
          <mxGeometry x="860" y="810" width="60" height="60" as="geometry" />
        </mxCell>
        <mxCell id="fS0RfPB_zb-3uNbmco2U-74" style="edgeStyle=orthogonalEdgeStyle;rounded=0;orthogonalLoop=1;jettySize=auto;html=1;entryX=0.5;entryY=0;entryDx=0;entryDy=0;entryPerimeter=0;fontSize=16;" parent="WIyWlLk6GJQsqaUBKTNV-1" source="fS0RfPB_zb-3uNbmco2U-70" target="fS0RfPB_zb-3uNbmco2U-72" edge="1">
          <mxGeometry relative="1" as="geometry" />
        </mxCell>
        <mxCell id="fS0RfPB_zb-3uNbmco2U-70" value="RuleDO" style="shape=parallelogram;html=1;strokeWidth=2;perimeter=parallelogramPerimeter;whiteSpace=wrap;rounded=1;arcSize=12;size=0.23;fontSize=16;" parent="WIyWlLk6GJQsqaUBKTNV-1" vertex="1">
          <mxGeometry x="670" y="1010" width="100" height="60" as="geometry" />
        </mxCell>
        <mxCell id="fS0RfPB_zb-3uNbmco2U-82" style="edgeStyle=none;rounded=0;orthogonalLoop=1;jettySize=auto;html=1;entryX=0.5;entryY=0;entryDx=0;entryDy=0;entryPerimeter=0;fontSize=16;" parent="WIyWlLk6GJQsqaUBKTNV-1" source="fS0RfPB_zb-3uNbmco2U-72" target="Z6ygz40lFEd_rRB81E8B-1" edge="1">
          <mxGeometry relative="1" as="geometry">
            <mxPoint x="720" y="1200" as="targetPoint" />
          </mxGeometry>
        </mxCell>
        <mxCell id="fS0RfPB_zb-3uNbmco2U-72" value="rule" style="strokeWidth=2;html=1;shape=mxgraph.flowchart.database;whiteSpace=wrap;fontSize=16;" parent="WIyWlLk6GJQsqaUBKTNV-1" vertex="1">
          <mxGeometry x="690" y="1110" width="60" height="60" as="geometry" />
        </mxCell>
        <mxCell id="fS0RfPB_zb-3uNbmco2U-87" value="Y" style="text;html=1;align=center;verticalAlign=middle;resizable=0;points=[];autosize=1;strokeColor=none;fillColor=none;fontSize=16;" parent="WIyWlLk6GJQsqaUBKTNV-1" vertex="1">
          <mxGeometry x="735" y="335" width="30" height="30" as="geometry" />
        </mxCell>
        <mxCell id="fS0RfPB_zb-3uNbmco2U-91" style="edgeStyle=none;rounded=0;orthogonalLoop=1;jettySize=auto;html=1;entryX=0.5;entryY=0;entryDx=0;entryDy=0;fontSize=16;targetPerimeterSpacing=0;" parent="WIyWlLk6GJQsqaUBKTNV-1" source="fS0RfPB_zb-3uNbmco2U-88" target="fS0RfPB_zb-3uNbmco2U-90" edge="1">
          <mxGeometry relative="1" as="geometry" />
        </mxCell>
        <mxCell id="fS0RfPB_zb-3uNbmco2U-88" value="RuleDO" style="shape=parallelogram;html=1;strokeWidth=2;perimeter=parallelogramPerimeter;whiteSpace=wrap;rounded=1;arcSize=12;size=0.23;fontSize=16;" parent="WIyWlLk6GJQsqaUBKTNV-1" vertex="1">
          <mxGeometry x="670" y="1360" width="100" height="60" as="geometry" />
        </mxCell>
        <mxCell id="fS0RfPB_zb-3uNbmco2U-93" style="edgeStyle=none;rounded=0;orthogonalLoop=1;jettySize=auto;html=1;entryX=0.5;entryY=0;entryDx=0;entryDy=0;entryPerimeter=0;fontSize=16;targetPerimeterSpacing=0;" parent="WIyWlLk6GJQsqaUBKTNV-1" source="fS0RfPB_zb-3uNbmco2U-90" target="Z6ygz40lFEd_rRB81E8B-0" edge="1">
          <mxGeometry relative="1" as="geometry">
            <mxPoint x="720" y="1550" as="targetPoint" />
          </mxGeometry>
        </mxCell>
        <mxCell id="fS0RfPB_zb-3uNbmco2U-90" value="do2vo" style="rounded=1;whiteSpace=wrap;html=1;absoluteArcSize=1;arcSize=14;strokeWidth=2;fontSize=16;" parent="WIyWlLk6GJQsqaUBKTNV-1" vertex="1">
          <mxGeometry x="670" y="1470" width="100" height="40" as="geometry" />
        </mxCell>
        <mxCell id="Z6ygz40lFEd_rRB81E8B-0" value="End" style="strokeWidth=2;html=1;shape=mxgraph.flowchart.terminator;whiteSpace=wrap;fontSize=16;" vertex="1" parent="WIyWlLk6GJQsqaUBKTNV-1">
          <mxGeometry x="670" y="1550" width="100" height="60" as="geometry" />
        </mxCell>
        <mxCell id="Z6ygz40lFEd_rRB81E8B-1" value="commit trx" style="strokeWidth=2;html=1;shape=mxgraph.flowchart.terminator;whiteSpace=wrap;fontSize=16;" vertex="1" parent="WIyWlLk6GJQsqaUBKTNV-1">
          <mxGeometry x="670" y="1210" width="100" height="60" as="geometry" />
        </mxCell>
        <mxCell id="Z6ygz40lFEd_rRB81E8B-7" value="throw exception" style="strokeWidth=2;html=1;shape=mxgraph.flowchart.terminator;whiteSpace=wrap;fontSize=16;" vertex="1" parent="WIyWlLk6GJQsqaUBKTNV-1">
          <mxGeometry x="870" y="260" width="100" height="60" as="geometry" />
        </mxCell>
      </root>
    </mxGraphModel>
  </diagram>
</mxfile>
